<?xml version="1.0" encoding="utf-8"?>
<!-- Generator: Adobe Illustrator 16.0.0, SVG Export Plug-In . SVG Version: 6.00 Build 0)  -->
<!DOCTYPE svg PUBLIC "-//W3C//DTD SVG 1.1//EN" "http://www.w3.org/Graphics/SVG/1.1/DTD/svg11.dtd">
<svg version="1.1" id="Шар_1" xmlns="http://www.w3.org/2000/svg" xmlns:xlink="http://www.w3.org/1999/xlink" viewBox="0 0 24 24" enable-background="new 0 0 24 24" xml:space="preserve">
<g>
	<circle cx="10.182" cy="11.67" r="0.455"/>
	<path d="M12,22c1.1,0,2-0.9,2-2h-4C10,21.1,10.89,22,12,22z"/>
	<circle cx="13.818" cy="11.67" r="0.455"/>
	<path d="M18,16v-5c0-3.07-1.641-5.64-4.5-6.32V4c0-0.83-0.67-1.5-1.5-1.5S10.5,3.17,10.5,4v0.68C7.63,5.36,6,7.92,6,11v5l-2,2v1h16
		v-1L18,16z M8,13.125c0.102-1.294,0.836-2.454,1.963-3.098L9.294,8.871C9.24,8.765,9.273,8.634,9.375,8.569
		C9.48,8.503,9.622,8.536,9.691,8.642l0.684,1.179c1.04-0.44,2.21-0.44,3.251,0l0.684-1.179c0.064-0.102,0.196-0.134,0.301-0.08
		c0.109,0.058,0.153,0.196,0.095,0.309l-0.669,1.157c1.127,0.644,1.862,1.804,1.964,3.098H8z"/>
</g>
</svg>
