<?xml version="1.0" encoding="utf-8"?>
<!-- Generator: Adobe Illustrator 16.0.0, SVG Export Plug-In . SVG Version: 6.00 Build 0)  -->
<!DOCTYPE svg PUBLIC "-//W3C//DTD SVG 1.1//EN" "http://www.w3.org/Graphics/SVG/1.1/DTD/svg11.dtd">
<svg version="1.1" id="Layer_1" xmlns="http://www.w3.org/2000/svg" xmlns:xlink="http://www.w3.org/1999/xlink" viewBox="0 0 24 24" enable-background="new 0 0 24 24" xml:space="preserve">
<g>
	<path d="M14.723,8.816c-1.988,1.254-3.98,2.508-5.969,3.762c-0.113,0.07-0.133,0.129-0.09,0.254
		c0.148,0.422,0.281,0.848,0.418,1.273c0.184,0.563,0.367,1.129,0.551,1.691c0.012-0.004,0.02-0.004,0.031-0.008
		c0.004-0.027,0.012-0.051,0.016-0.074c0.059-0.613,0.117-1.23,0.168-1.844c0.012-0.137,0.059-0.234,0.16-0.328
		c0.816-0.73,1.633-1.469,2.445-2.203c0.902-0.813,1.805-1.625,2.703-2.441c0.055-0.051,0.078-0.137,0.117-0.207
		c-0.086-0.008-0.176-0.043-0.254-0.023C14.914,8.695,14.816,8.758,14.723,8.816z"/>
	<path d="M12,2C6.477,2,2,6.477,2,12c0,5.522,4.477,10,10,10c5.522,0,10-4.478,10-10C22,6.477,17.522,2,12,2z
		 M17.266,8.48c-0.574,2.711-1.148,5.426-1.727,8.137c-0.137,0.645-0.59,0.813-1.117,0.422c-0.887-0.652-1.773-1.309-2.66-1.965
		c-0.043-0.035-0.086-0.066-0.137-0.102c-0.48,0.465-0.953,0.926-1.426,1.387c-0.164,0.16-0.348,0.25-0.586,0.238
		c-0.16-0.008-0.25-0.078-0.301-0.23c-0.359-1.117-0.727-2.234-1.086-3.355c-0.035-0.109-0.086-0.16-0.195-0.195
		c-0.848-0.258-1.699-0.523-2.543-0.793c-0.129-0.043-0.262-0.094-0.375-0.172c-0.176-0.117-0.199-0.309-0.043-0.449
		c0.145-0.129,0.316-0.238,0.496-0.309c1.039-0.41,2.082-0.809,3.125-1.211c2.645-1.02,5.289-2.043,7.934-3.063
		c0.504-0.195,0.891,0.078,0.836,0.625C17.426,7.793,17.336,8.137,17.266,8.48z"/>
</g>
</svg>
