<?xml version="1.0" encoding="utf-8"?>
<!-- Generator: Adobe Illustrator 16.0.0, SVG Export Plug-In . SVG Version: 6.00 Build 0)  -->
<!DOCTYPE svg PUBLIC "-//W3C//DTD SVG 1.1//EN" "http://www.w3.org/Graphics/SVG/1.1/DTD/svg11.dtd">
<svg version="1.1" id="Icons" xmlns="http://www.w3.org/2000/svg" xmlns:xlink="http://www.w3.org/1999/xlink" viewBox="0 0 24 24" enable-background="new 0 0 24 24" xml:space="preserve">
<g>
	<path fill="none" d="M16.253,13.188c-0.127-0.25-0.377-0.375-0.565-0.5C15.875,12.813,16.125,12.938,16.253,13.188z"/>
	<path fill="none" d="M6.876,12.063L6.813,12L6.876,12.063c1.187,1.75,2.687,3,4.187,3.625c1.313,0.563,2.063,0.688,2.563,0.688
		h0.001c-0.5,0-1.25-0.125-2.563-0.688C9.564,15.063,8.064,13.813,6.876,12.063z"/>
	<path d="M12,2C7.063,2,2,3.063,2,10.75c0,4.125,1.438,6.688,4.375,7.875v2.313c0,0.438,0.25,0.813,0.625,1
		C7.125,22,7.313,22,7.438,22c0.25,0,0.563-0.125,0.75-0.313l2.25-2.25c0.5,0,1,0.063,1.563,0.063c4.938,0,10-1.063,10-8.75
		C22.001,3.063,16.938,2,12,2z M11.687,8.375c1.125,0,2.063,0.938,2.063,2.063c0,0.375-0.25,0.625-0.625,0.625
		s-0.625-0.25-0.625-0.625c0-0.438-0.374-0.813-0.812-0.813c-0.375,0-0.626-0.25-0.626-0.625S11.312,8.375,11.687,8.375z
		 M11.063,7.063c0-0.375,0.25-0.625,0.625-0.625c2.187,0,4,1.812,4,4c0,0.375-0.25,0.625-0.625,0.625s-0.625-0.25-0.625-0.625
		c0-1.5-1.25-2.75-2.75-2.75C11.313,7.688,11.063,7.438,11.063,7.063z M16.189,14.813c-0.156,0.469-0.581,0.864-1.076,1.142
		c-0.297,0.165-0.619,0.288-0.924,0.358c-0.125,0.063-0.313,0.063-0.563,0.063h-0.001c-0.5,0-1.25-0.125-2.563-0.688
		c-1.5-0.625-3-1.875-4.188-3.625L6.813,12C6.438,11.438,5.75,10.375,5.75,9.25c0-1.375,0.688-2.063,1-2.375s0.75-0.5,1.25-0.5
		c0.125,0,0.188,0,0.25,0.125c0.438,0,0.813,0.125,1.063,0.75l0.25,0.5c0.187,0.438,0.437,1,0.501,1.124
		c0.125,0.375,0.125,0.687,0,1c-0.125,0.188-0.188,0.313-0.313,0.438c-0.063,0.063-0.125,0.125-0.188,0.188S9.5,10.563,9.436,10.625
		c0.188,0.313,0.563,0.875,1.063,1.313c0.75,0.625,1.312,0.875,1.625,1c0.125-0.125,0.313-0.375,0.438-0.563l0.063-0.125
		c0.313-0.438,0.813-0.563,1.313-0.375c0.25,0.062,1.625,0.75,1.625,0.75l0.125,0.063c0.188,0.125,0.438,0.25,0.565,0.5
		C16.503,13.625,16.314,14.375,16.189,14.813z M17.001,11.063c-0.375,0-0.625-0.25-0.625-0.625c0-2.563-2.125-4.688-4.688-4.688
		c-0.375,0-0.625-0.25-0.625-0.625S11.313,4.5,11.688,4.5c3.25,0,5.937,2.688,5.938,5.938
		C17.626,10.813,17.376,11.063,17.001,11.063z"/>
	<path display="none" d="M11.688,7.688c1.5,0,2.75,1.25,2.75,2.75c0,0.375,0.25,0.625,0.625,0.625s0.625-0.25,0.625-0.625
		c0-2.188-1.813-4-4-4c-0.375,0-0.625,0.25-0.625,0.625S11.313,7.688,11.688,7.688z"/>
	<path display="none" d="M11.688,9.625c0.438,0,0.812,0.375,0.812,0.813c0,0.375,0.25,0.625,0.625,0.625s0.625-0.25,0.625-0.625
		c0-1.125-0.938-2.063-2.063-2.063c-0.375,0-0.625,0.25-0.625,0.625S11.313,9.625,11.688,9.625z"/>
	<path display="none" d="M11.688,4.5c-0.375,0-0.625,0.25-0.625,0.625s0.25,0.625,0.625,0.625c2.563,0,4.688,2.125,4.688,4.688
		c0,0.375,0.25,0.625,0.625,0.625s0.625-0.25,0.625-0.625C17.625,7.188,14.938,4.5,11.688,4.5z"/>
	<path display="none" d="M15.688,12.688l-0.125-0.063c0,0-1.375-0.688-1.625-0.75c-0.5-0.188-1-0.063-1.313,0.375l-0.063,0.125
		c-0.125,0.188-0.313,0.438-0.438,0.563c-0.313-0.125-0.875-0.375-1.625-1c-0.5-0.438-0.875-1-1.063-1.313
		C9.5,10.563,9.5,10.563,9.563,10.5s0.125-0.125,0.188-0.188c0.125-0.125,0.188-0.25,0.313-0.438c0.125-0.313,0.125-0.625,0-1
		C10,8.75,9.75,8.188,9.563,7.75l-0.25-0.5C9.063,6.625,8.688,6.5,8.25,6.5C8.188,6.375,8.125,6.375,8,6.375
		c-0.5,0-0.938,0.188-1.25,0.5s-1,1-1,2.375c0,1.125,0.688,2.188,1.063,2.75l0.063,0.063c1.188,1.75,2.688,3,4.188,3.625
		c1.313,0.563,2.063,0.688,2.563,0.688c0.25,0,0.438,0,0.563-0.063c0.305-0.07,0.627-0.193,0.924-0.358
		c0.495-0.277,0.92-0.673,1.076-1.142c0.125-0.438,0.313-1.188,0.063-1.625C16.125,12.938,15.875,12.813,15.688,12.688z"/>
</g>
</svg>
